<mxfile host="app.diagrams.net" agent="Mozilla/5.0 (Windows NT 10.0; Win64; x64) AppleWebKit/537.36 (KHTML, like Gecko) Chrome/130.0.0.0 Safari/537.36" version="24.8.3" pages="4">
  <diagram name="HLA" id="XxC78WRN62zS0wCRnzkr">
    <mxGraphModel dx="1624" dy="346" grid="0" gridSize="10" guides="1" tooltips="1" connect="1" arrows="1" fold="1" page="0" pageScale="1" pageWidth="1100" pageHeight="850" math="0" shadow="0">
      <root>
        <mxCell id="0" />
        <mxCell id="1" parent="0" />
        <mxCell id="8EI1_srN0An6A3IgLa9l-3" style="edgeStyle=orthogonalEdgeStyle;rounded=1;orthogonalLoop=1;jettySize=auto;html=1;entryX=0;entryY=0.5;entryDx=0;entryDy=0;exitX=0.875;exitY=0.5;exitDx=0;exitDy=0;exitPerimeter=0;sketch=1;curveFitting=1;jiggle=2;" edge="1" parent="1" source="8EI1_srN0An6A3IgLa9l-1" target="8EI1_srN0An6A3IgLa9l-2">
          <mxGeometry relative="1" as="geometry" />
        </mxCell>
        <mxCell id="8EI1_srN0An6A3IgLa9l-8" value="PUBLISH EVENT" style="edgeLabel;html=1;align=center;verticalAlign=middle;resizable=0;points=[];rotation=-90;sketch=1;curveFitting=1;jiggle=2;rounded=1;" vertex="1" connectable="0" parent="8EI1_srN0An6A3IgLa9l-3">
          <mxGeometry x="-0.0308" y="1" relative="1" as="geometry">
            <mxPoint x="-21" y="18" as="offset" />
          </mxGeometry>
        </mxCell>
        <mxCell id="8EI1_srN0An6A3IgLa9l-9" value="NOTIFY&amp;nbsp;" style="edgeLabel;html=1;align=center;verticalAlign=middle;resizable=0;points=[];rotation=-90;sketch=1;curveFitting=1;jiggle=2;rounded=1;" vertex="1" connectable="0" parent="8EI1_srN0An6A3IgLa9l-3">
          <mxGeometry x="-0.0308" y="1" relative="1" as="geometry">
            <mxPoint x="-22" y="172" as="offset" />
          </mxGeometry>
        </mxCell>
        <mxCell id="8EI1_srN0An6A3IgLa9l-1" value="PUBLISHER" style="ellipse;shape=cloud;whiteSpace=wrap;html=1;sketch=1;curveFitting=1;jiggle=2;rounded=1;fillColor=#dae8fc;strokeColor=#6c8ebf;" vertex="1" parent="1">
          <mxGeometry x="114" y="504" width="295" height="215" as="geometry" />
        </mxCell>
        <mxCell id="8EI1_srN0An6A3IgLa9l-5" style="edgeStyle=orthogonalEdgeStyle;rounded=1;orthogonalLoop=1;jettySize=auto;html=1;sketch=1;curveFitting=1;jiggle=2;" edge="1" parent="1" source="8EI1_srN0An6A3IgLa9l-2" target="8EI1_srN0An6A3IgLa9l-4">
          <mxGeometry relative="1" as="geometry" />
        </mxCell>
        <mxCell id="8EI1_srN0An6A3IgLa9l-10" value="RETRIEVE EVENT LISTENERS" style="edgeLabel;html=1;align=center;verticalAlign=middle;resizable=0;points=[];sketch=1;curveFitting=1;jiggle=2;rounded=1;" vertex="1" connectable="0" parent="8EI1_srN0An6A3IgLa9l-5">
          <mxGeometry x="-0.1947" y="-1" relative="1" as="geometry">
            <mxPoint x="26" y="-20" as="offset" />
          </mxGeometry>
        </mxCell>
        <mxCell id="8EI1_srN0An6A3IgLa9l-2" value="EVENT HIGHWAY" style="ellipse;whiteSpace=wrap;html=1;aspect=fixed;sketch=1;curveFitting=1;jiggle=2;rounded=1;fillColor=#d5e8d4;strokeColor=#82b366;" vertex="1" parent="1">
          <mxGeometry x="739" y="630" width="264" height="264" as="geometry" />
        </mxCell>
        <mxCell id="8EI1_srN0An6A3IgLa9l-4" value="STORAGE" style="shape=cylinder3;whiteSpace=wrap;html=1;boundedLbl=1;backgroundOutline=1;size=15;sketch=1;curveFitting=1;jiggle=2;rounded=1;fillColor=#f8cecc;strokeColor=#b85450;" vertex="1" parent="1">
          <mxGeometry x="1260" y="660" width="183" height="204" as="geometry" />
        </mxCell>
        <mxCell id="8EI1_srN0An6A3IgLa9l-6" value="LISTENER" style="ellipse;shape=cloud;whiteSpace=wrap;html=1;sketch=1;curveFitting=1;jiggle=2;rounded=1;fillColor=#dae8fc;strokeColor=#6c8ebf;" vertex="1" parent="1">
          <mxGeometry x="114" y="789" width="295" height="215" as="geometry" />
        </mxCell>
        <mxCell id="8EI1_srN0An6A3IgLa9l-7" style="edgeStyle=orthogonalEdgeStyle;rounded=1;orthogonalLoop=1;jettySize=auto;html=1;entryX=0.875;entryY=0.5;entryDx=0;entryDy=0;entryPerimeter=0;sketch=1;curveFitting=1;jiggle=2;" edge="1" parent="1" source="8EI1_srN0An6A3IgLa9l-2" target="8EI1_srN0An6A3IgLa9l-6">
          <mxGeometry relative="1" as="geometry" />
        </mxCell>
      </root>
    </mxGraphModel>
  </diagram>
  <diagram id="oG1xivvDVFtKkFxh7Glt" name="Event Address Registrations">
    <mxGraphModel dx="1254" dy="497" grid="0" gridSize="10" guides="1" tooltips="1" connect="1" arrows="1" fold="1" page="0" pageScale="1" pageWidth="850" pageHeight="1100" math="0" shadow="0">
      <root>
        <mxCell id="0" />
        <mxCell id="1" parent="0" />
        <mxCell id="uBmHBFgnhV3q597knvi8-1" style="edgeStyle=orthogonalEdgeStyle;rounded=0;orthogonalLoop=1;jettySize=auto;html=1;entryX=0;entryY=0.5;entryDx=0;entryDy=0;sketch=1;curveFitting=1;jiggle=2;" edge="1" parent="1" source="uBmHBFgnhV3q597knvi8-2" target="uBmHBFgnhV3q597knvi8-4">
          <mxGeometry relative="1" as="geometry" />
        </mxCell>
        <mxCell id="uBmHBFgnhV3q597knvi8-2" value="Event Address Registration&lt;div&gt;Client&lt;/div&gt;" style="rounded=0;whiteSpace=wrap;html=1;sketch=1;curveFitting=1;jiggle=2;" vertex="1" parent="1">
          <mxGeometry x="-14" y="124" width="196" height="71" as="geometry" />
        </mxCell>
        <mxCell id="uBmHBFgnhV3q597knvi8-3" style="edgeStyle=orthogonalEdgeStyle;rounded=0;orthogonalLoop=1;jettySize=auto;html=1;sketch=1;curveFitting=1;jiggle=2;" edge="1" parent="1" source="uBmHBFgnhV3q597knvi8-4" target="uBmHBFgnhV3q597knvi8-6">
          <mxGeometry relative="1" as="geometry" />
        </mxCell>
        <mxCell id="uBmHBFgnhV3q597knvi8-4" value="Event Address Registration&lt;div&gt;Service&lt;/div&gt;" style="rounded=0;whiteSpace=wrap;html=1;sketch=1;curveFitting=1;jiggle=2;" vertex="1" parent="1">
          <mxGeometry x="292" y="124" width="196" height="71" as="geometry" />
        </mxCell>
        <mxCell id="uBmHBFgnhV3q597knvi8-5" style="edgeStyle=orthogonalEdgeStyle;rounded=0;orthogonalLoop=1;jettySize=auto;html=1;sketch=1;curveFitting=1;jiggle=2;" edge="1" parent="1" source="uBmHBFgnhV3q597knvi8-6" target="uBmHBFgnhV3q597knvi8-7">
          <mxGeometry relative="1" as="geometry">
            <mxPoint x="857" y="159.5" as="targetPoint" />
          </mxGeometry>
        </mxCell>
        <mxCell id="uBmHBFgnhV3q597knvi8-6" value="Event Address Registration&lt;br&gt;Storage Broker" style="rounded=0;whiteSpace=wrap;html=1;sketch=1;curveFitting=1;jiggle=2;" vertex="1" parent="1">
          <mxGeometry x="596" y="124" width="196" height="71" as="geometry" />
        </mxCell>
        <mxCell id="uBmHBFgnhV3q597knvi8-7" value="DB" style="shape=cylinder3;whiteSpace=wrap;html=1;boundedLbl=1;backgroundOutline=1;size=15;sketch=1;curveFitting=1;jiggle=2;" vertex="1" parent="1">
          <mxGeometry x="887" y="115.5" width="65" height="88" as="geometry" />
        </mxCell>
      </root>
    </mxGraphModel>
  </diagram>
  <diagram id="uXb4wuRInLPchlIGoCAI" name="Event Listener Registrations">
    <mxGraphModel dx="1521" dy="653" grid="0" gridSize="10" guides="1" tooltips="1" connect="1" arrows="1" fold="1" page="0" pageScale="1" pageWidth="850" pageHeight="1100" math="0" shadow="0">
      <root>
        <mxCell id="0" />
        <mxCell id="1" parent="0" />
        <mxCell id="tuz1qDJ2ovgHrOcDyrsE-1" style="edgeStyle=orthogonalEdgeStyle;rounded=1;orthogonalLoop=1;jettySize=auto;html=1;sketch=1;curveFitting=1;jiggle=2;" edge="1" parent="1" source="tuz1qDJ2ovgHrOcDyrsE-2" target="tuz1qDJ2ovgHrOcDyrsE-4">
          <mxGeometry relative="1" as="geometry" />
        </mxCell>
        <mxCell id="tuz1qDJ2ovgHrOcDyrsE-2" value="Event Listener Registration&lt;div&gt;Client&lt;/div&gt;" style="rounded=1;whiteSpace=wrap;html=1;sketch=1;curveFitting=1;jiggle=2;" vertex="1" parent="1">
          <mxGeometry x="-134" y="122.5" width="196" height="71" as="geometry" />
        </mxCell>
        <mxCell id="tuz1qDJ2ovgHrOcDyrsE-3" style="edgeStyle=orthogonalEdgeStyle;rounded=1;orthogonalLoop=1;jettySize=auto;html=1;sketch=1;curveFitting=1;jiggle=2;" edge="1" parent="1" source="tuz1qDJ2ovgHrOcDyrsE-4" target="tuz1qDJ2ovgHrOcDyrsE-5">
          <mxGeometry relative="1" as="geometry" />
        </mxCell>
        <mxCell id="tuz1qDJ2ovgHrOcDyrsE-4" value="Event Listener Registration&lt;div&gt;Service&lt;/div&gt;" style="rounded=1;whiteSpace=wrap;html=1;sketch=1;curveFitting=1;jiggle=2;" vertex="1" parent="1">
          <mxGeometry x="173" y="122.5" width="196" height="71" as="geometry" />
        </mxCell>
        <mxCell id="tuz1qDJ2ovgHrOcDyrsE-5" value="Event Listener Registration&lt;br&gt;Storage Broker" style="rounded=1;whiteSpace=wrap;html=1;sketch=1;curveFitting=1;jiggle=2;" vertex="1" parent="1">
          <mxGeometry x="477" y="122.5" width="196" height="71" as="geometry" />
        </mxCell>
        <mxCell id="tuz1qDJ2ovgHrOcDyrsE-6" style="edgeStyle=orthogonalEdgeStyle;rounded=1;orthogonalLoop=1;jettySize=auto;html=1;entryX=0;entryY=0.5;entryDx=0;entryDy=0;entryPerimeter=0;sketch=1;curveFitting=1;jiggle=2;" edge="1" parent="1" source="tuz1qDJ2ovgHrOcDyrsE-5" target="tuz1qDJ2ovgHrOcDyrsE-7">
          <mxGeometry relative="1" as="geometry">
            <mxPoint x="738" y="158" as="targetPoint" />
          </mxGeometry>
        </mxCell>
        <mxCell id="tuz1qDJ2ovgHrOcDyrsE-7" value="DB" style="shape=cylinder3;whiteSpace=wrap;html=1;boundedLbl=1;backgroundOutline=1;size=15;sketch=1;curveFitting=1;jiggle=2;rounded=1;" vertex="1" parent="1">
          <mxGeometry x="768" y="114" width="65" height="88" as="geometry" />
        </mxCell>
      </root>
    </mxGraphModel>
  </diagram>
  <diagram id="5xkqc2ulBoojXJ-fcWzD" name="Event Publishing">
    <mxGraphModel dx="2695" dy="870" grid="0" gridSize="10" guides="1" tooltips="1" connect="1" arrows="1" fold="1" page="0" pageScale="1" pageWidth="850" pageHeight="1100" math="0" shadow="0">
      <root>
        <mxCell id="0" />
        <mxCell id="1" parent="0" />
        <mxCell id="ia0nuqsjzbO07R-sSjLW-1" style="edgeStyle=orthogonalEdgeStyle;rounded=1;orthogonalLoop=1;jettySize=auto;html=1;sketch=1;curveFitting=1;jiggle=2;" edge="1" parent="1" source="ia0nuqsjzbO07R-sSjLW-2" target="ia0nuqsjzbO07R-sSjLW-5">
          <mxGeometry relative="1" as="geometry" />
        </mxCell>
        <mxCell id="ia0nuqsjzbO07R-sSjLW-2" value="Event Publishing Client" style="rounded=1;whiteSpace=wrap;html=1;sketch=1;curveFitting=1;jiggle=2;" vertex="1" parent="1">
          <mxGeometry x="-515" y="327.5" width="196" height="71" as="geometry" />
        </mxCell>
        <mxCell id="ia0nuqsjzbO07R-sSjLW-3" style="edgeStyle=orthogonalEdgeStyle;rounded=1;orthogonalLoop=1;jettySize=auto;html=1;entryX=0;entryY=0.5;entryDx=0;entryDy=0;sketch=1;curveFitting=1;jiggle=2;" edge="1" parent="1" source="ia0nuqsjzbO07R-sSjLW-5" target="ia0nuqsjzbO07R-sSjLW-16">
          <mxGeometry relative="1" as="geometry" />
        </mxCell>
        <mxCell id="ia0nuqsjzbO07R-sSjLW-4" style="edgeStyle=orthogonalEdgeStyle;rounded=1;orthogonalLoop=1;jettySize=auto;html=1;entryX=0;entryY=0.5;entryDx=0;entryDy=0;sketch=1;curveFitting=1;jiggle=2;" edge="1" parent="1" source="ia0nuqsjzbO07R-sSjLW-5" target="ia0nuqsjzbO07R-sSjLW-19">
          <mxGeometry relative="1" as="geometry" />
        </mxCell>
        <mxCell id="ia0nuqsjzbO07R-sSjLW-5" value="Event&lt;br&gt;Coordination Service" style="rounded=1;whiteSpace=wrap;html=1;sketch=1;curveFitting=1;jiggle=2;" vertex="1" parent="1">
          <mxGeometry x="-240" y="327.5" width="196" height="71" as="geometry" />
        </mxCell>
        <mxCell id="ia0nuqsjzbO07R-sSjLW-6" style="edgeStyle=orthogonalEdgeStyle;rounded=1;orthogonalLoop=1;jettySize=auto;html=1;sketch=1;curveFitting=1;jiggle=2;" edge="1" parent="1" source="ia0nuqsjzbO07R-sSjLW-7" target="ia0nuqsjzbO07R-sSjLW-23">
          <mxGeometry relative="1" as="geometry" />
        </mxCell>
        <mxCell id="ia0nuqsjzbO07R-sSjLW-7" value="Event Address Registeration&lt;br&gt;Service" style="rounded=1;whiteSpace=wrap;html=1;sketch=1;curveFitting=1;jiggle=2;" vertex="1" parent="1">
          <mxGeometry x="383" y="109" width="196" height="71" as="geometry" />
        </mxCell>
        <mxCell id="ia0nuqsjzbO07R-sSjLW-8" style="edgeStyle=orthogonalEdgeStyle;rounded=1;orthogonalLoop=1;jettySize=auto;html=1;sketch=1;curveFitting=1;jiggle=2;" edge="1" parent="1" source="ia0nuqsjzbO07R-sSjLW-9" target="ia0nuqsjzbO07R-sSjLW-24">
          <mxGeometry relative="1" as="geometry" />
        </mxCell>
        <mxCell id="ia0nuqsjzbO07R-sSjLW-9" value="Event Listener Registration&lt;br&gt;Service" style="rounded=1;whiteSpace=wrap;html=1;sketch=1;curveFitting=1;jiggle=2;" vertex="1" parent="1">
          <mxGeometry x="386" y="376.25" width="196" height="71" as="geometry" />
        </mxCell>
        <mxCell id="ia0nuqsjzbO07R-sSjLW-10" style="edgeStyle=orthogonalEdgeStyle;rounded=1;orthogonalLoop=1;jettySize=auto;html=1;sketch=1;curveFitting=1;jiggle=2;" edge="1" parent="1" source="ia0nuqsjzbO07R-sSjLW-11" target="ia0nuqsjzbO07R-sSjLW-30">
          <mxGeometry relative="1" as="geometry" />
        </mxCell>
        <mxCell id="ia0nuqsjzbO07R-sSjLW-11" value="Listener Event&lt;br&gt;Service" style="rounded=1;whiteSpace=wrap;html=1;sketch=1;curveFitting=1;jiggle=2;" vertex="1" parent="1">
          <mxGeometry x="385" y="623.88" width="196" height="71" as="geometry" />
        </mxCell>
        <mxCell id="ia0nuqsjzbO07R-sSjLW-14" style="edgeStyle=orthogonalEdgeStyle;rounded=1;orthogonalLoop=1;jettySize=auto;html=1;entryX=0;entryY=0.5;entryDx=0;entryDy=0;sketch=1;curveFitting=1;jiggle=2;" edge="1" parent="1" source="ia0nuqsjzbO07R-sSjLW-16" target="ia0nuqsjzbO07R-sSjLW-7">
          <mxGeometry relative="1" as="geometry" />
        </mxCell>
        <mxCell id="bdyUAi5mYZlLlgG6SYgJ-12" style="edgeStyle=orthogonalEdgeStyle;rounded=1;sketch=1;hachureGap=4;jiggle=2;curveFitting=1;orthogonalLoop=1;jettySize=auto;html=1;entryX=0;entryY=0.5;entryDx=0;entryDy=0;fontFamily=Architects Daughter;fontSource=https%3A%2F%2Ffonts.googleapis.com%2Fcss%3Ffamily%3DArchitects%2BDaughter;" edge="1" parent="1" source="ia0nuqsjzbO07R-sSjLW-16" target="bdyUAi5mYZlLlgG6SYgJ-8">
          <mxGeometry relative="1" as="geometry" />
        </mxCell>
        <mxCell id="ia0nuqsjzbO07R-sSjLW-16" value="Event&lt;div&gt;Orchestration Service&lt;/div&gt;" style="rounded=1;whiteSpace=wrap;html=1;sketch=1;curveFitting=1;jiggle=2;" vertex="1" parent="1">
          <mxGeometry x="83" y="166.5" width="196" height="71" as="geometry" />
        </mxCell>
        <mxCell id="ia0nuqsjzbO07R-sSjLW-18" style="edgeStyle=orthogonalEdgeStyle;rounded=1;orthogonalLoop=1;jettySize=auto;html=1;entryX=0;entryY=0.5;entryDx=0;entryDy=0;sketch=1;curveFitting=1;jiggle=2;" edge="1" parent="1" source="ia0nuqsjzbO07R-sSjLW-19" target="ia0nuqsjzbO07R-sSjLW-11">
          <mxGeometry relative="1" as="geometry" />
        </mxCell>
        <mxCell id="bdyUAi5mYZlLlgG6SYgJ-6" style="edgeStyle=orthogonalEdgeStyle;rounded=1;sketch=1;hachureGap=4;jiggle=2;curveFitting=1;orthogonalLoop=1;jettySize=auto;html=1;entryX=0;entryY=0.5;entryDx=0;entryDy=0;fontFamily=Architects Daughter;fontSource=https%3A%2F%2Ffonts.googleapis.com%2Fcss%3Ffamily%3DArchitects%2BDaughter;" edge="1" parent="1" source="ia0nuqsjzbO07R-sSjLW-19" target="bdyUAi5mYZlLlgG6SYgJ-2">
          <mxGeometry relative="1" as="geometry" />
        </mxCell>
        <mxCell id="bdyUAi5mYZlLlgG6SYgJ-13" style="edgeStyle=orthogonalEdgeStyle;rounded=1;sketch=1;hachureGap=4;jiggle=2;curveFitting=1;orthogonalLoop=1;jettySize=auto;html=1;entryX=0;entryY=0.5;entryDx=0;entryDy=0;fontFamily=Architects Daughter;fontSource=https%3A%2F%2Ffonts.googleapis.com%2Fcss%3Ffamily%3DArchitects%2BDaughter;" edge="1" parent="1" source="ia0nuqsjzbO07R-sSjLW-19" target="ia0nuqsjzbO07R-sSjLW-9">
          <mxGeometry relative="1" as="geometry" />
        </mxCell>
        <mxCell id="ia0nuqsjzbO07R-sSjLW-19" value="&lt;div&gt;Event Listener&amp;nbsp;&lt;/div&gt;&lt;div&gt;Orchestration Service&lt;/div&gt;" style="rounded=1;whiteSpace=wrap;html=1;sketch=1;curveFitting=1;jiggle=2;" vertex="1" parent="1">
          <mxGeometry x="83" y="494.5" width="196" height="71" as="geometry" />
        </mxCell>
        <mxCell id="ia0nuqsjzbO07R-sSjLW-20" value="DB" style="shape=cylinder3;whiteSpace=wrap;html=1;boundedLbl=1;backgroundOutline=1;size=15;sketch=1;curveFitting=1;jiggle=2;rounded=1;" vertex="1" parent="1">
          <mxGeometry x="982" y="100.5" width="65" height="88" as="geometry" />
        </mxCell>
        <mxCell id="ia0nuqsjzbO07R-sSjLW-21" value="DB" style="shape=cylinder3;whiteSpace=wrap;html=1;boundedLbl=1;backgroundOutline=1;size=15;sketch=1;curveFitting=1;jiggle=2;rounded=1;" vertex="1" parent="1">
          <mxGeometry x="981" y="368" width="67" height="87.5" as="geometry" />
        </mxCell>
        <mxCell id="ia0nuqsjzbO07R-sSjLW-22" style="edgeStyle=orthogonalEdgeStyle;rounded=1;orthogonalLoop=1;jettySize=auto;html=1;sketch=1;curveFitting=1;jiggle=2;" edge="1" parent="1" source="ia0nuqsjzbO07R-sSjLW-23" target="ia0nuqsjzbO07R-sSjLW-20">
          <mxGeometry relative="1" as="geometry" />
        </mxCell>
        <mxCell id="ia0nuqsjzbO07R-sSjLW-23" value="Event Address Registration&lt;br&gt;Storage Broker" style="rounded=1;whiteSpace=wrap;html=1;sketch=1;curveFitting=1;jiggle=2;" vertex="1" parent="1">
          <mxGeometry x="688" y="109.5" width="196" height="71" as="geometry" />
        </mxCell>
        <mxCell id="ia0nuqsjzbO07R-sSjLW-24" value="Event Listener Registration&lt;br&gt;Storage Broker" style="rounded=1;whiteSpace=wrap;html=1;sketch=1;curveFitting=1;jiggle=2;" vertex="1" parent="1">
          <mxGeometry x="691" y="376.25" width="196" height="71" as="geometry" />
        </mxCell>
        <mxCell id="ia0nuqsjzbO07R-sSjLW-25" style="edgeStyle=orthogonalEdgeStyle;rounded=1;orthogonalLoop=1;jettySize=auto;html=1;entryX=0;entryY=0.5;entryDx=0;entryDy=0;entryPerimeter=0;sketch=1;curveFitting=1;jiggle=2;" edge="1" parent="1" source="ia0nuqsjzbO07R-sSjLW-24" target="ia0nuqsjzbO07R-sSjLW-21">
          <mxGeometry relative="1" as="geometry" />
        </mxCell>
        <mxCell id="ia0nuqsjzbO07R-sSjLW-27" value="DB" style="shape=cylinder3;whiteSpace=wrap;html=1;boundedLbl=1;backgroundOutline=1;size=15;sketch=1;curveFitting=1;jiggle=2;rounded=1;" vertex="1" parent="1">
          <mxGeometry x="981" y="616" width="67" height="87.5" as="geometry" />
        </mxCell>
        <mxCell id="ia0nuqsjzbO07R-sSjLW-30" value="Listener Event&lt;br&gt;Storage Broker" style="rounded=1;whiteSpace=wrap;html=1;sketch=1;curveFitting=1;jiggle=2;" vertex="1" parent="1">
          <mxGeometry x="690" y="624.25" width="196" height="71" as="geometry" />
        </mxCell>
        <mxCell id="ia0nuqsjzbO07R-sSjLW-31" style="edgeStyle=orthogonalEdgeStyle;rounded=1;orthogonalLoop=1;jettySize=auto;html=1;entryX=0;entryY=0.5;entryDx=0;entryDy=0;entryPerimeter=0;sketch=1;curveFitting=1;jiggle=2;" edge="1" parent="1" source="ia0nuqsjzbO07R-sSjLW-30" target="ia0nuqsjzbO07R-sSjLW-27">
          <mxGeometry relative="1" as="geometry" />
        </mxCell>
        <mxCell id="bdyUAi5mYZlLlgG6SYgJ-1" style="edgeStyle=orthogonalEdgeStyle;rounded=1;orthogonalLoop=1;jettySize=auto;html=1;entryX=0;entryY=0.5;entryDx=0;entryDy=0;sketch=1;curveFitting=1;jiggle=2;" edge="1" source="bdyUAi5mYZlLlgG6SYgJ-2" target="bdyUAi5mYZlLlgG6SYgJ-5" parent="1">
          <mxGeometry relative="1" as="geometry" />
        </mxCell>
        <mxCell id="bdyUAi5mYZlLlgG6SYgJ-2" value="Listener Caller&lt;br&gt;Service" style="rounded=1;whiteSpace=wrap;html=1;sketch=1;curveFitting=1;jiggle=2;" vertex="1" parent="1">
          <mxGeometry x="386" y="495.63" width="196" height="71" as="geometry" />
        </mxCell>
        <mxCell id="bdyUAi5mYZlLlgG6SYgJ-5" value="Listener Caller&lt;br&gt;API Broker" style="rounded=1;whiteSpace=wrap;html=1;sketch=1;curveFitting=1;jiggle=2;" vertex="1" parent="1">
          <mxGeometry x="691" y="494.5" width="196" height="71" as="geometry" />
        </mxCell>
        <mxCell id="bdyUAi5mYZlLlgG6SYgJ-7" style="edgeStyle=orthogonalEdgeStyle;rounded=1;orthogonalLoop=1;jettySize=auto;html=1;entryX=0;entryY=0.5;entryDx=0;entryDy=0;sketch=1;curveFitting=1;jiggle=2;" edge="1" parent="1" source="bdyUAi5mYZlLlgG6SYgJ-8" target="bdyUAi5mYZlLlgG6SYgJ-11">
          <mxGeometry relative="1" as="geometry" />
        </mxCell>
        <mxCell id="bdyUAi5mYZlLlgG6SYgJ-8" value="Event&lt;br&gt;Service" style="rounded=1;whiteSpace=wrap;html=1;sketch=1;curveFitting=1;jiggle=2;" vertex="1" parent="1">
          <mxGeometry x="385" y="224.63" width="196" height="71" as="geometry" />
        </mxCell>
        <mxCell id="bdyUAi5mYZlLlgG6SYgJ-9" value="DB" style="shape=cylinder3;whiteSpace=wrap;html=1;boundedLbl=1;backgroundOutline=1;size=15;sketch=1;curveFitting=1;jiggle=2;rounded=1;" vertex="1" parent="1">
          <mxGeometry x="982" y="215" width="65" height="88" as="geometry" />
        </mxCell>
        <mxCell id="bdyUAi5mYZlLlgG6SYgJ-10" style="edgeStyle=orthogonalEdgeStyle;rounded=1;orthogonalLoop=1;jettySize=auto;html=1;sketch=1;curveFitting=1;jiggle=2;" edge="1" parent="1" source="bdyUAi5mYZlLlgG6SYgJ-11" target="bdyUAi5mYZlLlgG6SYgJ-9">
          <mxGeometry relative="1" as="geometry" />
        </mxCell>
        <mxCell id="bdyUAi5mYZlLlgG6SYgJ-11" value="Event&lt;br&gt;Storage Broker" style="rounded=1;whiteSpace=wrap;html=1;sketch=1;curveFitting=1;jiggle=2;" vertex="1" parent="1">
          <mxGeometry x="690" y="223.5" width="196" height="71" as="geometry" />
        </mxCell>
        <mxCell id="bdyUAi5mYZlLlgG6SYgJ-14" value="API" style="ellipse;shape=cloud;whiteSpace=wrap;html=1;rounded=1;sketch=1;hachureGap=4;jiggle=2;curveFitting=1;fontFamily=Architects Daughter;fontSource=https%3A%2F%2Ffonts.googleapis.com%2Fcss%3Ffamily%3DArchitects%2BDaughter;" vertex="1" parent="1">
          <mxGeometry x="954.5" y="486" width="120" height="80" as="geometry" />
        </mxCell>
        <mxCell id="bdyUAi5mYZlLlgG6SYgJ-15" style="edgeStyle=orthogonalEdgeStyle;rounded=1;sketch=1;hachureGap=4;jiggle=2;curveFitting=1;orthogonalLoop=1;jettySize=auto;html=1;entryX=0.16;entryY=0.55;entryDx=0;entryDy=0;entryPerimeter=0;fontFamily=Architects Daughter;fontSource=https%3A%2F%2Ffonts.googleapis.com%2Fcss%3Ffamily%3DArchitects%2BDaughter;" edge="1" parent="1" source="bdyUAi5mYZlLlgG6SYgJ-5" target="bdyUAi5mYZlLlgG6SYgJ-14">
          <mxGeometry relative="1" as="geometry" />
        </mxCell>
      </root>
    </mxGraphModel>
  </diagram>
</mxfile>
